<svg width="220" height="56" viewBox="0 0 220 56" fill="none" xmlns="http://www.w3.org/2000/svg">
<path d="M60.1666 31.3377C60.1582 35.0489 59.0277 38.6708 56.9236 41.7279C54.8195 44.7851 51.8401 47.1344 48.3766 48.4677C47.8266 48.6677 47.2866 48.8877 46.7166 49.0377C46.5472 49.0859 46.3698 49.0998 46.195 49.0785C46.0201 49.0571 45.8513 49.001 45.6984 48.9134C45.5456 48.8258 45.4118 48.7085 45.305 48.5684C45.1982 48.4283 45.1206 48.2682 45.0766 48.0977C45.016 47.9204 44.9944 47.7322 45.0134 47.5459C45.0323 47.3595 45.0912 47.1794 45.1862 47.018C45.2812 46.8566 45.4099 46.7176 45.5636 46.6105C45.7173 46.5034 45.8923 46.4308 46.0766 46.3977C48.5309 45.5975 50.7732 44.2541 52.6366 42.4677C55.1552 40.014 56.7545 36.7696 57.1666 33.2777C57.5112 30.6841 57.1663 28.0455 56.1666 25.6277C55.062 22.9705 53.2666 20.6572 50.9666 18.9277C48.956 17.4177 46.5962 16.4407 44.1066 16.0877C43.8996 16.0414 43.6886 16.0146 43.4766 16.0077C42.2366 16.0077 41.7166 15.2977 41.2666 14.2477C40.8254 13.2033 40.2433 12.2242 39.5366 11.3377C38.6002 10.1353 37.435 9.13014 36.1084 8.38012C34.7817 7.63011 33.3197 7.15006 31.8066 6.96766C28.8158 6.53096 25.7707 7.24577 23.2866 8.96766C21.1667 10.3452 19.5658 12.3893 18.7366 14.7777C18.3366 15.9177 17.4266 15.9877 16.4866 16.0977C13.1951 16.5139 10.1231 17.9719 7.71935 20.2587C5.31564 22.5454 3.70633 25.541 3.12661 28.8077C2.51143 32.6088 3.32011 36.5033 5.39777 39.7452C7.47543 42.9872 10.676 45.3488 14.3866 46.3777C17.2166 47.1582 20.2077 47.1374 23.0266 46.3177C23.2329 46.2315 23.4573 46.198 23.6797 46.22C23.9022 46.2421 24.1157 46.319 24.301 46.4439C24.4864 46.5688 24.6379 46.7378 24.7418 46.9357C24.8458 47.1335 24.899 47.3541 24.8966 47.5777C24.802 48.0342 24.5678 48.45 24.2266 48.7677C23.9361 48.9899 23.5902 49.1283 23.2266 49.1677C20.7414 49.8279 18.1452 49.9589 15.6061 49.5524C13.067 49.1459 10.6415 48.2108 8.48661 46.8077C6.24018 45.4232 4.33111 43.5547 2.89866 41.3386C1.46621 39.1224 0.546499 36.6145 0.20661 33.9977C-0.45122 29.753 0.474118 25.4146 2.80661 21.8077C4.17897 19.5758 6.0153 17.6652 8.19105 16.2055C10.3668 14.7458 12.831 13.7712 15.4166 13.3477C15.6336 13.3369 15.843 13.2644 16.0202 13.1386C16.1974 13.0128 16.3349 12.839 16.4166 12.6377C17.6816 9.8826 19.7805 7.5948 22.4166 6.09766C25.7946 4.09468 29.8235 3.49638 33.6378 4.43126C37.4521 5.36614 40.7477 7.75963 42.8166 11.0977C43.1383 11.5611 43.4035 12.0613 43.6066 12.5877C43.6796 12.8007 43.813 12.9879 43.9906 13.1264C44.1682 13.2649 44.3822 13.3488 44.6066 13.3677C48.297 13.9634 51.7168 15.6738 54.407 18.2693C57.0972 20.8647 58.929 24.221 59.6566 27.8877C59.9566 29.0077 60.0266 30.1777 60.1666 31.3377Z" fill="#1F3E66"/>
<path d="M26.3266 39.8676C26.3672 35.5887 27.3004 31.3653 29.0666 27.4676C30.1521 25.0251 31.5688 22.7437 33.2766 20.6876C33.3863 20.5074 33.5326 20.3521 33.706 20.2318C33.8794 20.1115 34.0761 20.0289 34.2834 19.9894C34.4907 19.9498 34.704 19.9541 34.9095 20.002C35.115 20.05 35.3082 20.1404 35.4766 20.2676C35.6307 20.4117 35.7536 20.5859 35.8376 20.7794C35.9216 20.973 35.965 21.1817 35.965 21.3926C35.965 21.6036 35.9216 21.8123 35.8376 22.0058C35.7536 22.1994 35.6307 22.3736 35.4766 22.5176C32.5182 26.1303 30.5326 30.4393 29.7082 35.0354C28.8839 39.6315 29.2482 44.362 30.7666 48.7776C30.9311 49.0773 30.9947 49.422 30.9479 49.7607C30.901 50.0993 30.7463 50.4139 30.5066 50.6576C30.3607 50.8215 30.1752 50.9451 29.9678 51.0166C29.7603 51.0881 29.538 51.1051 29.3222 51.0659C29.1063 51.0267 28.9041 50.9328 28.7351 50.793C28.566 50.6532 28.4357 50.4723 28.3566 50.2676C27.7391 48.3627 27.2217 46.4267 26.8066 44.4676C26.4666 42.9276 26.4666 41.3876 26.3266 39.8676Z" fill="#1F3E66"/>
<path d="M32.6066 39.7877C32.5922 34.2253 34.5398 28.8359 38.1066 24.5677C38.3249 24.2564 38.656 24.0426 39.0294 23.9716C39.4029 23.9006 39.7894 23.9781 40.1066 24.1877C40.276 24.3059 40.4175 24.4596 40.5214 24.6381C40.6252 24.8166 40.6889 25.0156 40.7079 25.2212C40.727 25.4269 40.7009 25.6342 40.6316 25.8288C40.5623 26.0233 40.4514 26.2004 40.3066 26.3477C39.4773 27.4533 38.7062 28.6016 37.9966 29.7877C36.5495 32.3979 35.6863 35.2912 35.4666 38.2677C35.2368 41.199 35.6252 44.1459 36.6066 46.9177C36.6958 47.1068 36.7428 47.3131 36.7443 47.5222C36.7457 47.7313 36.7016 47.9382 36.615 48.1285C36.5284 48.3188 36.4014 48.488 36.2428 48.6243C36.0842 48.7606 35.8978 48.8607 35.6966 48.9177C35.5027 48.9679 35.3007 48.9783 35.1026 48.9481C34.9046 48.918 34.7148 48.848 34.5447 48.7424C34.3745 48.6367 34.2276 48.4976 34.1127 48.3335C33.9979 48.1694 33.9176 47.9837 33.8766 47.7877C32.994 45.2145 32.5643 42.5077 32.6066 39.7877Z" fill="#1F3E66"/>
<path d="M38.7166 39.5476C38.8132 35.5669 40.219 31.7289 42.7166 28.6276C43.4966 27.6276 44.6366 27.6276 45.2266 28.4676C45.4003 28.7459 45.4759 29.0742 45.4415 29.4003C45.4071 29.7265 45.2646 30.0318 45.0366 30.2676C43.3964 32.2924 42.2986 34.7014 41.8466 37.2676C41.37 39.8187 41.5735 42.4502 42.4366 44.8976C42.5103 45.0879 42.5455 45.2909 42.5401 45.4949C42.5346 45.6989 42.4887 45.8998 42.405 46.0859C42.3212 46.272 42.2013 46.4396 42.0523 46.5789C41.9032 46.7183 41.7279 46.8266 41.5366 46.8976C41.1561 46.9913 40.7539 46.9302 40.4183 46.7277C40.0827 46.5253 39.8412 46.198 39.7466 45.8176C39.063 43.798 38.715 41.6799 38.7166 39.5476Z" fill="#1F3E66"/>
<path d="M79.396 41H77.108C75.084 41 73.4853 40.428 72.312 39.284C71.168 38.14 70.596 36.5413 70.596 34.488V25.072C70.596 23.0187 71.168 21.42 72.312 20.276C73.4853 19.132 75.084 18.56 77.108 18.56H86.656C87.0667 18.56 87.272 18.7653 87.272 19.176V40.384C87.272 40.7947 87.0667 41 86.656 41H84.676C84.2653 41 84.06 40.7947 84.06 40.384V38.668H83.884C83.1507 40.2227 81.6547 41 79.396 41ZM84.06 34.136V21.772C84.06 21.508 83.9133 21.376 83.62 21.376H77.46C75.0253 21.376 73.808 22.652 73.808 25.204V34.356C73.808 36.908 75.0253 38.184 77.46 38.184H79.968C81.288 38.184 82.3 37.832 83.004 37.128C83.708 36.424 84.06 35.4267 84.06 34.136ZM108.737 41H99.4088C97.3848 41 95.7861 40.428 94.6128 39.284C93.4688 38.14 92.8968 36.5413 92.8968 34.488V25.072C92.8968 23.0187 93.4688 21.42 94.6128 20.276C95.7861 19.132 97.3848 18.56 99.4088 18.56H103.105C105.129 18.56 106.713 19.132 107.857 20.276C109.001 21.42 109.573 23.0187 109.573 25.072V30.66C109.573 31.1 109.367 31.32 108.957 31.32H96.5048C96.2114 31.32 96.0648 31.452 96.0648 31.716V34.4C96.0648 36.952 97.2968 38.228 99.7608 38.228H108.737C109.147 38.228 109.353 38.4333 109.353 38.844V40.428C109.353 40.8093 109.147 41 108.737 41ZM96.5048 28.988H106.009C106.302 28.988 106.449 28.8413 106.449 28.548V25.16C106.449 22.6373 105.217 21.376 102.753 21.376H99.7608C97.2968 21.376 96.0648 22.6373 96.0648 25.16V28.548C96.0648 28.8413 96.2114 28.988 96.5048 28.988ZM117.589 41H115.609C115.198 41 114.993 40.7947 114.993 40.384V19.176C114.993 18.7653 115.198 18.56 115.609 18.56H117.589C118 18.56 118.205 18.7653 118.205 19.176V20.936H118.381C118.674 20.2907 119.232 19.7333 120.053 19.264C120.874 18.7947 121.842 18.56 122.957 18.56H124.673C125.054 18.56 125.245 18.7653 125.245 19.176V20.804C125.245 21.0093 125.201 21.1707 125.113 21.288C125.025 21.376 124.878 21.4053 124.673 21.376H122.297C120.977 21.376 119.965 21.772 119.261 22.564C118.557 23.356 118.205 24.4413 118.205 25.82V40.384C118.205 40.7947 118 41 117.589 41ZM136.168 41H133.484C133.073 41 132.824 40.7947 132.736 40.384L127.104 19.176C127.016 18.7653 127.162 18.56 127.544 18.56H129.788C130.169 18.56 130.404 18.7653 130.492 19.176L134.76 37.128H135.024L139.556 19.176C139.644 18.7653 139.878 18.56 140.26 18.56H142.284C142.694 18.56 142.958 18.7653 143.076 19.176L147.476 37.128H147.74L152.052 19.176C152.14 18.7653 152.374 18.56 152.756 18.56H155C155.381 18.56 155.528 18.7653 155.44 19.176L149.808 40.384C149.72 40.7947 149.47 41 149.06 41H146.332C145.95 41 145.716 40.7947 145.628 40.384L141.36 22.872H141.14L136.916 40.384C136.828 40.7947 136.578 41 136.168 41ZM167.74 41H165.452C163.428 41 161.829 40.428 160.656 39.284C159.512 38.14 158.94 36.5413 158.94 34.488V25.072C158.94 23.0187 159.512 21.42 160.656 20.276C161.829 19.132 163.428 18.56 165.452 18.56H175C175.41 18.56 175.616 18.7653 175.616 19.176V40.384C175.616 40.7947 175.41 41 175 41H173.02C172.609 41 172.404 40.7947 172.404 40.384V38.668H172.228C171.494 40.2227 169.998 41 167.74 41ZM172.404 34.136V21.772C172.404 21.508 172.257 21.376 171.964 21.376H165.804C163.369 21.376 162.152 22.652 162.152 25.204V34.356C162.152 36.908 163.369 38.184 165.804 38.184H168.312C169.632 38.184 170.644 37.832 171.348 37.128C172.052 36.424 172.404 35.4267 172.404 34.136ZM179.965 18.56H182.033C182.414 18.56 182.649 18.7653 182.737 19.176L188.017 37.788H188.237L193.473 19.176C193.59 18.7653 193.839 18.56 194.221 18.56H196.289C196.699 18.56 196.846 18.7653 196.729 19.176L190.393 40.34C190.305 40.78 190.041 41 189.601 41H186.609C186.198 41 185.934 40.78 185.817 40.34L179.525 19.176C179.407 18.7653 179.554 18.56 179.965 18.56ZM216.03 41H206.702C204.678 41 203.079 40.428 201.906 39.284C200.762 38.14 200.19 36.5413 200.19 34.488V25.072C200.19 23.0187 200.762 21.42 201.906 20.276C203.079 19.132 204.678 18.56 206.702 18.56H210.398C212.422 18.56 214.006 19.132 215.15 20.276C216.294 21.42 216.866 23.0187 216.866 25.072V30.66C216.866 31.1 216.66 31.32 216.25 31.32H203.798C203.504 31.32 203.358 31.452 203.358 31.716V34.4C203.358 36.952 204.59 38.228 207.054 38.228H216.03C216.44 38.228 216.646 38.4333 216.646 38.844V40.428C216.646 40.8093 216.44 41 216.03 41ZM203.798 28.988H213.302C213.595 28.988 213.742 28.8413 213.742 28.548V25.16C213.742 22.6373 212.51 21.376 210.046 21.376H207.054C204.59 21.376 203.358 22.6373 203.358 25.16V28.548C203.358 28.8413 203.504 28.988 203.798 28.988Z" fill="#1F3E66"/>
</svg>
